<?xml version="1.0" encoding="UTF-8" standalone="no"?>
<svg
   data-name="Layer 1"
   viewBox="0 0 114.6941 114.6941"
   x="0px"
   y="0px"
   version="1.1"
   id="svg16"
   width="114.6941"
   height="114.6941"
   sodipodi:docname="MikeNakis.GlobalConfig-Logo.svg"
   xml:space="preserve"
   inkscape:version="1.3.2 (091e20e, 2023-11-25, custom)"
   inkscape:export-filename="MikeNakis.GlobalConfig-Logo.png"
   inkscape:export-xdpi="214.27432"
   inkscape:export-ydpi="214.27432"
   xmlns:inkscape="http://www.inkscape.org/namespaces/inkscape"
   xmlns:sodipodi="http://sodipodi.sourceforge.net/DTD/sodipodi-0.dtd"
   xmlns="http://www.w3.org/2000/svg"
   xmlns:svg="http://www.w3.org/2000/svg"
   xmlns:rdf="http://www.w3.org/1999/02/22-rdf-syntax-ns#"
   xmlns:cc="http://creativecommons.org/ns#"
   xmlns:dc="http://purl.org/dc/elements/1.1/"><sodipodi:namedview
     id="namedview1"
     pagecolor="#505050"
     bordercolor="#eeeeee"
     borderopacity="1"
     inkscape:showpageshadow="0"
     inkscape:pageopacity="0"
     inkscape:pagecheckerboard="0"
     inkscape:deskcolor="#505050"
     inkscape:zoom="11.313709"
     inkscape:cx="59.61794"
     inkscape:cy="71.815532"
     inkscape:window-width="2351"
     inkscape:window-height="2021"
     inkscape:window-x="22"
     inkscape:window-y="21"
     inkscape:window-maximized="0"
     inkscape:current-layer="svg16" /><metadata
     id="metadata22"><rdf:RDF><cc:Work
         rdf:about=""><dc:format>image/svg+xml</dc:format><dc:type
           rdf:resource="http://purl.org/dc/dcmitype/StillImage" /></cc:Work></rdf:RDF></metadata><defs
     id="defs20"><style
       id="style2">.cls-1{fill:none;stroke:#000;stroke-linecap:round;stroke-linejoin:round;stroke-width:8px;}</style></defs><g
     id="background"
     style="display:inline;stroke:#000000;stroke-width:4.89822;stroke-dasharray:none;stroke-opacity:1"><circle
       style="display:inline;fill:#cccccc;fill-opacity:1;stroke:none;stroke-width:2;stroke-miterlimit:4;stroke-dasharray:none;stroke-opacity:1"
       id="circle"
       cx="57.34705"
       cy="57.34705"
       r="57.34705" /><circle
       style="display:inline;opacity:1;fill:none;fill-opacity:1;stroke:#000000;stroke-width:2;stroke-miterlimit:4;stroke-dasharray:none"
       id="path835"
       cx="57.34705"
       cy="57.34705"
       r="54.386814" /></g><g
     style="clip-rule:evenodd;fill-rule:evenodd;stroke-linejoin:round;stroke-miterlimit:2"
     id="document"
     transform="matrix(0.01650888,0,0,0.01650888,18.482307,19.067018)"><path
       d="m 4038.94,1196.3 c 0.013,-2.171 -0.021,-4.342 -0.104,-6.508 v -0.063 c -0.021,-0.583 -0.046,-1.171 -0.075,-1.754 l -0.075,-1.313 -0.01,-0.116 c -1.271,-21.213 -7.125,-41.2 -16.588,-58.992 l -0.633,-1.183 c -6.542,-12.063 -14.867,-23.317 -24.896,-33.346 l -1046.72,-1046.73 -1.004,2.425 c -14.937,-15.642 -33.342,-27.946 -53.975,-35.671 -12.046,-5.859 -27.633,-9.138 -47.437,-9.138 -0.242,0 -0.48,0.004 -0.717,0.025 -0.833,-0.021 -1.675,-0.025 -2.521,-0.025 h -1742.62 c -114.633,0 -224.567,45.567 -305.583,126.584 -81.034,81.033 -126.584,190.95 -126.584,305.67 v 3765.19 c 0,114.704 45.517,224.508 126.534,305.608 0.016,0.013 0.033,0.03 0.05,0.046 81.016,81.017 190.95,126.588 305.583,126.588 h 2505.21 c 238.705,0 432.171,-193.434 432.171,-432.242 V 1196.305 Z M 2699.48,293.317 H 1101.56 c -37.867,0 -74.179,15.058 -100.942,41.816 -26.779,26.784 -41.816,63.117 -41.816,101.029 v 3765.19 c 0,37.925 15.062,74.221 41.841,101.038 26.759,26.745 63.063,41.791 100.917,41.791 h 2505.21 c 78.867,0 142.763,-63.929 142.763,-142.829 v -2861.3 h -617.796 c -114.621,0 -224.562,-45.475 -305.671,-126.587 -81.016,-81.013 -126.587,-190.975 -126.587,-305.584 V 293.315 Z m 289.417,201.308 556,556.013 h -413.154 c -37.879,0 -74.221,-15.013 -101.029,-41.817 -26.763,-26.763 -41.817,-63.083 -41.817,-100.942 z"
       id="path1"
       sodipodi:nodetypes="csscccccccccscsssssscssscccscsscssscscsccccscsc" /></g><path
     d="m 56.006773,83.529855 -0.38348,-0.04134 -0.295088,-1.787629 c -0.380634,-2.298 -0.446214,-2.548897 -0.727036,-2.745601 -0.383481,-0.269429 -1.890288,-0.727036 -2.16257,-0.65861 -0.13828,0.03421 -0.935163,0.784041 -1.771974,1.666469 l -1.521076,1.603735 -0.333578,-0.172493 c -0.182471,-0.09409 -0.72846,-0.434791 -1.211715,-0.756962 l -0.878122,-0.58449 0.14113,-0.390597 c 0.07698,-0.215257 0.439061,-1.127596 0.805426,-2.028563 0.781193,-1.925906 0.785463,-1.878865 -0.268006,-2.970842 -0.545989,-0.564528 -0.728459,-0.689959 -1.007859,-0.689959 -0.188171,0 -1.154711,0.216684 -2.1483,0.481832 -0.993626,0.265152 -1.874595,0.481833 -1.957291,0.481833 -0.125448,0 -1.414148,-2.259499 -1.414148,-2.479048 0,-0.03849 0.571644,-0.504641 1.271602,-1.034937 0.699958,-0.530296 1.464036,-1.146135 1.69924,-1.36853 0.424829,-0.40202 0.427675,-0.409136 0.374905,-1.05917 -0.02851,-0.359241 -0.149685,-0.875276 -0.269429,-1.144712 C 43.695656,67.27575 43.5645,67.21444 40.950023,66.467442 39.618571,66.086808 39.303517,65.958531 39.260746,65.7846 c -0.02851,-0.118322 -0.01568,-0.768385 0.02994,-1.445497 l 0.08411,-1.230254 0.481832,-0.08411 c 0.265152,-0.04562 1.221715,-0.172493 2.125492,-0.280833 1.91452,-0.229516 1.988639,-0.273706 2.35785,-1.395609 0.40202,-1.220292 0.437638,-1.143289 -1.394185,-2.929495 L 41.319241,56.832146 41.543052,56.3717 c 0.122598,-0.253748 0.443331,-0.80258 0.709921,-1.220292 l 0.486102,-0.758384 0.404866,0.145407 c 0.222388,0.07983 1.006435,0.384904 1.742011,0.677149 2.045679,0.815425 2.068488,0.819695 2.513242,0.608722 0.209557,-0.09979 0.595877,-0.420522 0.861043,-0.71419 0.383481,-0.426252 0.480409,-0.612992 0.480409,-0.92374 0,-0.213834 -0.269429,-1.198906 -0.598723,-2.186802 -0.329301,-0.987897 -0.574491,-1.854633 -0.545989,-1.927329 0.05274,-0.129726 2.416314,-1.416995 2.471895,-1.345722 0.913776,1.203176 2.608747,3.231739 2.769832,3.318705 0.24092,0.128299 1.052053,0.06843 1.723509,-0.126876 0.774077,-0.225238 0.848197,-0.380634 1.298681,-2.707135 l 0.407712,-2.111259 2.905263,0.05987 0.14113,0.909507 c 0.497524,3.204624 0.533143,3.361439 0.816848,3.60522 0.390597,0.336432 1.665045,0.727036 2.052796,0.630108 0.313623,-0.0784 0.477562,-0.238066 2.238113,-2.188226 0.530296,-0.587336 0.992202,-1.070592 1.027821,-1.074862 0.08554,-0.0114 2.028563,1.153288 2.258075,1.354262 0.169639,0.148257 0.168216,0.192448 -0.03706,0.708497 -0.791193,1.998638 -1.284411,3.521101 -1.221714,3.772035 0.03706,0.149684 0.38348,0.581643 0.766961,0.960817 0.57876,0.570221 0.761231,0.688536 1.057746,0.688536 0.196725,0 1.217408,-0.263729 2.268038,-0.584491 l 1.908826,-0.58449 0.182471,0.236643 c 0.101213,0.129725 0.410559,0.688535 0.689958,1.24164 0.498948,0.987896 0.503218,1.007859 0.295088,1.17752 -2.467624,2.012871 -3.154736,2.627286 -3.216046,2.871067 -0.114044,0.453331 0.268006,1.851786 0.595876,2.179686 0.277983,0.277983 0.98078,0.478986 3.807799,1.090555 l 0.642918,0.13828 -0.0057,1.358567 c -0.0028,0.746999 -0.03279,1.385646 -0.06558,1.416995 -0.03279,0.03279 -0.987896,0.242343 -2.124068,0.464716 -1.950174,0.383481 -2.081298,0.424828 -2.36358,0.741269 -0.379211,0.424828 -0.771231,1.63939 -0.640071,1.985792 0.05132,0.135427 0.812579,0.942279 1.692124,1.791936 l 1.598042,1.545308 -0.21098,0.374904 c -0.116894,0.206707 -0.44906,0.744152 -0.739846,1.196023 l -0.527449,0.821118 -0.340706,-0.14113 c -0.186748,-0.0784 -1.106211,-0.413406 -2.042833,-0.746999 -1.466882,-0.521756 -1.742011,-0.58876 -1.988639,-0.486102 -0.350687,0.145408 -1.560964,1.365684 -1.646506,1.659353 -0.03564,0.124021 0.225238,1.081978 0.620108,2.273767 l 0.682842,2.059912 -0.604416,0.363515 c -0.332155,0.199579 -0.893814,0.508911 -1.247369,0.685688 l -0.642918,0.320751 -1.123326,-1.334299 c -0.618685,-0.734153 -1.324336,-1.519653 -1.568117,-1.747741 l -0.444791,-0.413406 -0.64007,0.149685 c -0.987897,0.230938 -1.479728,0.46187 -1.615158,0.759808 -0.09836,0.216684 -0.434791,1.656505 -0.92947,3.974577 -0.04989,0.230939 -0.09266,0.239493 -1.093401,0.222388 -0.573067,-0.01 -1.214561,-0.03706 -1.425534,-0.05845 z m 3.541064,-9.142148 c 4.193907,-0.959394 7.180587,-5.04641 6.918194,-9.465851 -0.232365,-3.932974 -2.915261,-7.340067 -6.616023,-8.400952 -0.992203,-0.28511 -2.926648,-0.393443 -3.857431,-0.218111 -3.874583,0.73273 -6.668575,3.378555 -7.529837,7.126212 -0.218111,0.948008 -0.220961,2.856798 -0.0071,3.854511 0.862466,4.014356 4.116904,6.960893 8.094401,7.322915 1.053477,0.09551 1.884594,0.03564 2.996498,-0.219534 z m -3.639452,-4.039901 c -2.119799,-0.681419 -3.548216,-2.651519 -3.542486,-4.889486 0.0043,-1.506807 0.494678,-2.670057 1.551001,-3.668026 2.781255,-2.630133 7.392983,-1.310067 8.356429,2.392081 0.691381,2.655789 -0.970817,5.511346 -3.619489,6.215318 -0.758385,0.202429 -2.03141,0.178194 -2.745601,-0.05132 z m 2.181109,-1.780513 c 1.491114,-0.387751 2.42343,-1.592349 2.420584,-3.126235 -0.0014,-1.190329 -0.702805,-2.289423 -1.831824,-2.873913 -0.543142,-0.280834 -1.659352,-0.326451 -2.352157,-0.09551 -0.812579,0.269429 -1.726355,1.191753 -1.958714,1.977253 -0.624378,2.102683 0.727037,4.030048 2.992228,4.26799 0.0613,0.0071 0.390597,-0.0613 0.731306,-0.149684 z"
     id="gear"
     style="display:inline;stroke-width:0.364941" /></svg>
